<svg xmlns="http://www.w3.org/2000/svg" width="15" height="15" viewBox="0 0 15 15">
  <g id="Сгруппировать_862" data-name="Сгруппировать 862" transform="translate(-1458 -6147)">
    <g id="Сгруппировать_859" data-name="Сгруппировать 859" transform="translate(50)">
      <g id="Сгруппировать_856" data-name="Сгруппировать 856" transform="translate(512 5910)">
        <path id="Контур_1123" data-name="Контур 1123" d="M906.86,237H900.14a4.144,4.144,0,0,0-4.14,4.14v6.721a4.144,4.144,0,0,0,4.14,4.14h6.721a4.144,4.144,0,0,0,4.14-4.14V241.14a4.144,4.144,0,0,0-4.14-4.14Zm2.809,10.86a2.812,2.812,0,0,1-2.809,2.809H900.14a2.812,2.812,0,0,1-2.809-2.809V241.14a2.812,2.812,0,0,1,2.809-2.809h6.721a2.812,2.812,0,0,1,2.809,2.809Zm0,0" fill="#e1306c"/>
        <path id="Контур_1124" data-name="Контур 1124" d="M929.672,267.727a2.945,2.945,0,1,0,2.945,2.945,2.948,2.948,0,0,0-2.945-2.945Zm0,4.876a1.931,1.931,0,1,1,1.931-1.931,1.933,1.933,0,0,1-1.931,1.931Zm0,0" transform="translate(-26.172 -26.172)" fill="#e1306c"/>
        <path id="Контур_1125" data-name="Контур 1125" d="M986.414,258.188a1.222,1.222,0,1,0,.865.358,1.229,1.229,0,0,0-.865-.358Zm0,0" transform="translate(-79.039 -18.776)" fill="#e1306c"/>
      </g>
    </g>
  </g>
</svg>
