<?xml version="1.0" encoding="utf-8"?><svg viewBox="0 0 18.462 15" xmlns="http://www.w3.org/2000/svg" xmlns:xlink="http://www.w3.org/1999/xlink"><style>:root>svg{display:none}:root>svg:target{display:block}</style><svg viewBox="0 0 8.109 15" id="facebook" xmlns="http://www.w3.org/2000/svg"><g data-name="Сгруппировать 864"><g data-name="Сгруппировать 855"><path data-name="Контур 1121" d="M7.8 0H5.855a3.416 3.416 0 00-3.6 3.691v1.7H.299a.306.306 0 00-.305.306v2.466a.305.305 0 00.305.306h1.956v6.222a.307.307 0 00.306.306h2.551a.307.307 0 00.307-.306V8.469h2.286a.306.306 0 00.306-.306V5.7a.307.307 0 00-.306-.306H5.418V3.951c0-.693.165-1.046 1.068-1.046H7.8a.306.306 0 00.306-.306V.309A.306.306 0 007.8 0zm0 0" fill="#3b5998"/></g></g></svg><svg viewBox="0 0 15 15" id="instagram" xmlns="http://www.w3.org/2000/svg"><g data-name="Сгруппировать 862"><g data-name="Сгруппировать 859"><g data-name="Сгруппировать 856" fill="#e1306c"><path data-name="Контур 1123" d="M10.86 0H4.14A4.144 4.144 0 000 4.14v6.721a4.144 4.144 0 004.14 4.14h6.721a4.144 4.144 0 004.14-4.14V4.14A4.144 4.144 0 0010.861 0zm2.809 10.86a2.812 2.812 0 01-2.809 2.809H4.14a2.812 2.812 0 01-2.809-2.809V4.14A2.812 2.812 0 014.14 1.331h6.721A2.812 2.812 0 0113.67 4.14zm0 0"/><path data-name="Контур 1124" d="M7.5 4.555A2.945 2.945 0 1010.445 7.5 2.948 2.948 0 007.5 4.555zm0 4.876A1.931 1.931 0 119.431 7.5 1.933 1.933 0 017.5 9.431zm0 0"/><path data-name="Контур 1125" d="M11.375 2.412a1.222 1.222 0 10.865.358 1.229 1.229 0 00-.865-.358zm0 0"/></g></g></g></svg><svg viewBox="0 0 15.698 15" id="linkedIn" xmlns="http://www.w3.org/2000/svg"><g data-name="Сгруппировать 861"><g data-name="Сгруппировать 860"><g data-name="Сгруппировать 857"><path data-name="Контур 1126" d="M15.7 9.2V15h-3.365V9.585c0-1.36-.487-2.289-1.7-2.289a1.841 1.841 0 00-1.726 1.231 2.3 2.3 0 00-.112.82V15H5.431s.045-9.171 0-10.121h3.365v1.435l-.022.033h.022v-.033a3.342 3.342 0 013.033-1.672c2.214 0 3.874 1.447 3.874 4.555zM1.9 0a1.754 1.754 0 10-.045 3.5h.022A1.754 1.754 0 101.899 0zM.2 15h3.364V4.879H.2zm0 0" fill="#0077b5"/></g></g></g></svg><svg viewBox="0 0 18.462 15" id="twitter" xmlns="http://www.w3.org/2000/svg"><g data-name="Сгруппировать 863"><g data-name="Сгруппировать 858"><path data-name="Контур 1122" d="M18.462 1.776a7.891 7.891 0 01-2.181.6A3.764 3.764 0 0017.946.284a7.564 7.564 0 01-2.4.916A3.785 3.785 0 009 3.786a3.9 3.9 0 00.088.863A10.713 10.713 0 011.288.69a3.786 3.786 0 001.163 5.058 3.738 3.738 0 01-1.71-.466v.042a3.8 3.8 0 003.032 3.719 3.777 3.777 0 01-.992.125 3.346 3.346 0 01-.717-.065A3.821 3.821 0 005.6 11.739a7.6 7.6 0 01-4.694 1.614A7.086 7.086 0 010 13.3 10.655 10.655 0 005.806 15 10.7 10.7 0 0016.578 4.23c0-.167-.006-.329-.014-.489a7.55 7.55 0 001.898-1.965z" fill="#1da1f2"/></g></g></svg></svg>